<svg width="18" height="18" viewBox="0 0 18 18" fill="none" xmlns="http://www.w3.org/2000/svg">
<path d="M16.0253 2.00224H14.3425V1.44134C14.3425 1.14076 14.1822 0.86299 13.9218 0.712696C13.6614 0.562402 13.3407 0.562402 13.0804 0.712696C12.8201 0.86299 12.6597 1.14075 12.6597 1.44134V2.00224H9.85512V1.44134C9.85512 1.14076 9.69483 0.86299 9.43453 0.712696C9.17423 0.562402 8.85336 0.562402 8.59305 0.712696C8.33274 0.86299 8.17246 1.14075 8.17246 1.44134V2.00224H5.3679V1.44134C5.3679 1.14076 5.20746 0.86299 4.94716 0.712696C4.68686 0.562402 4.36614 0.562402 4.10583 0.712696C3.84539 0.86299 3.68509 1.14075 3.68509 1.44134V2.00224H2.00229C1.63056 2.00266 1.27408 2.15056 1.01124 2.41353C0.748405 2.67637 0.600494 3.03273 0.600098 3.40458V16.0252C0.60052 16.397 0.748419 16.7535 1.01124 17.0163C1.27408 17.2791 1.63059 17.427 2.00229 17.4274H16.0253C16.397 17.427 16.7535 17.2791 17.0163 17.0163C17.2792 16.7534 17.4271 16.3969 17.4275 16.0252V3.40458C17.4271 3.03273 17.2792 2.67636 17.0163 2.41353C16.7535 2.15055 16.397 2.00264 16.0253 2.00224ZM13.2207 1.44134C13.2207 1.2864 13.3462 1.1609 13.5012 1.1609C13.656 1.1609 13.7816 1.2864 13.7816 1.44134V3.12414C13.7816 3.27895 13.656 3.40459 13.5012 3.40459C13.3462 3.40459 13.2207 3.27894 13.2207 3.12414V1.44134ZM8.73318 1.44134C8.73318 1.2864 8.85868 1.1609 9.01362 1.1609C9.16856 1.1609 9.29406 1.2864 9.29406 1.44134V3.12414C9.29406 3.27895 9.16856 3.40459 9.01362 3.40459C8.85868 3.40459 8.73318 3.27894 8.73318 3.12414V1.44134ZM4.24563 1.44134C4.24563 1.2864 4.37127 1.1609 4.52607 1.1609C4.68101 1.1609 4.80651 1.2864 4.80651 1.44134V3.12414C4.80651 3.27895 4.68101 3.40459 4.52607 3.40459C4.37127 3.40459 4.24563 3.27894 4.24563 3.12414V1.44134ZM1.1606 3.40458C1.1606 3.18146 1.2492 2.96736 1.40695 2.8096C1.56485 2.65184 1.7788 2.56311 2.00193 2.56311H3.68473V3.12415C3.68473 3.42473 3.84503 3.7025 4.10547 3.85279C4.36577 4.00309 4.68649 4.00309 4.9468 3.85279C5.20711 3.7025 5.36754 3.42474 5.36754 3.12415V2.56311H8.1721V3.12415C8.1721 3.42473 8.33239 3.7025 8.59269 3.85279C8.85299 4.00309 9.17385 4.00309 9.43417 3.85279C9.69448 3.7025 9.85476 3.42474 9.85476 3.12415V2.56311H12.6593V3.12415C12.6593 3.42473 12.8198 3.7025 13.0801 3.85279C13.3404 4.00309 13.6611 4.00309 13.9214 3.85279C14.1818 3.7025 14.3421 3.42474 14.3421 3.12415V2.56311H16.0249C16.248 2.56311 16.462 2.65184 16.6199 2.8096C16.7777 2.96736 16.8663 3.18144 16.8663 3.40458V5.36781H1.16074L1.1606 3.40458ZM16.0249 16.8665H2.00186C1.77874 16.8665 1.56479 16.7779 1.40688 16.6201C1.24912 16.4622 1.16053 16.2483 1.16053 16.0252V16.0178C1.40181 16.2035 1.69748 16.3046 2.00186 16.3056H13.3157C13.509 16.3045 13.6998 16.2635 13.8766 16.1853C13.8927 16.1788 13.9079 16.1707 13.9223 16.1611C14.0648 16.0949 14.1951 16.005 14.3077 15.8953L16.8663 13.3367V16.0252C16.8663 16.2483 16.7777 16.4623 16.62 16.6202C16.4621 16.7779 16.2481 16.8665 16.025 16.8665L16.0249 16.8665ZM14.0616 15.3481V13.6216C14.0619 13.4409 14.1337 13.2676 14.2615 13.1399C14.3893 13.0121 14.5625 12.9403 14.7431 12.9402H16.4695L14.0616 15.3481ZM16.8662 12.194C16.8655 12.2564 16.8579 12.3186 16.8435 12.3791H14.7431C14.4137 12.3795 14.0979 12.5105 13.865 12.7435C13.6321 12.9763 13.501 13.2921 13.5007 13.6216V15.7219C13.44 15.7364 13.3779 15.744 13.3156 15.7447H2.00172C1.77861 15.7447 1.56465 15.656 1.40675 15.4982C1.24899 15.3405 1.16039 15.1265 1.16039 14.9033V5.92852H16.8659L16.8662 12.194Z" fill="url(#paint0_linear_119_6520)"/>
<path d="M5.08708 10.9772H6.04604L5.54319 11.4801C5.43375 11.5896 5.43375 11.7673 5.54333 11.8767C5.65292 11.9863 5.83054 11.9861 5.93998 11.8766L6.83948 10.9772H7.05034C8.3031 10.9772 8.6854 12.4787 8.73314 12.6906V12.8709L7.83379 13.7702H7.83365C7.72406 13.8798 7.72406 14.0574 7.83351 14.167C7.9431 14.2766 8.12071 14.2766 8.2303 14.1672L8.73315 13.6643V14.6231C8.73315 14.7781 8.85865 14.9036 9.01359 14.9036C9.16853 14.9036 9.29403 14.7781 9.29403 14.6231V13.6643L9.79687 14.1672C9.90646 14.2766 10.0841 14.2766 10.1937 14.167C10.3031 14.0574 10.3031 13.8798 10.1935 13.7702L9.29404 12.8709V12.6906C9.34291 12.4816 9.73716 10.9772 10.9768 10.9772H11.1877L12.087 11.8766H12.0872C12.1966 11.9861 12.3743 11.9863 12.4838 11.8767C12.5934 11.7673 12.5934 11.5896 12.484 11.4801L11.9811 10.9772H12.9401C13.0949 10.9772 13.2205 10.8516 13.2205 10.6968C13.2205 10.5418 13.0949 10.4163 12.9401 10.4163H11.9811L12.484 9.91348V9.91334C12.5934 9.80375 12.5934 9.62628 12.4838 9.51669C12.3743 9.40724 12.1966 9.40724 12.0872 9.51683L11.1877 10.4163H10.9768C9.72407 10.4163 9.34177 8.91479 9.29403 8.70294V8.52265L10.1935 7.62315C10.3031 7.51371 10.3031 7.33609 10.1937 7.2265C10.0841 7.11691 9.90646 7.11677 9.79687 7.22636L9.29403 7.7292V6.77025C9.29403 6.61531 9.16852 6.48981 9.01359 6.48981C8.85865 6.48981 8.73314 6.61531 8.73314 6.77025V7.7292L8.2303 7.22636C8.12071 7.11677 7.9431 7.11691 7.83351 7.2265C7.72406 7.33609 7.72406 7.51371 7.83365 7.62315L8.73314 8.52265V8.70294C8.68426 8.91183 8.29001 10.4163 7.05034 10.4163H6.83948L5.93998 9.51683C5.83054 9.40724 5.65292 9.40724 5.54333 9.51669C5.43375 9.62628 5.43375 9.80375 5.54319 9.91334L6.04604 10.4163H5.08708C4.93228 10.4163 4.80664 10.5418 4.80664 10.6968C4.80664 10.8516 4.93228 10.9772 5.08708 10.9772V10.9772ZM8.97064 9.65907C8.99825 9.6702 9.02895 9.6702 9.05656 9.65907C9.26207 10.0809 9.57772 10.4394 9.9703 10.6967C9.55324 10.971 9.22178 11.3571 9.01362 11.8106C8.80543 11.3571 8.47399 10.971 8.05693 10.6967C8.44951 10.4394 8.76517 10.0809 8.97067 9.65907H8.97064Z" fill="url(#paint1_linear_119_6520)"/>
<path d="M7.37861 9.34196C7.4527 9.34153 7.52355 9.31125 7.57496 9.25772C7.58919 9.24575 7.60144 9.23153 7.6113 9.21575C7.61975 9.20166 7.62806 9.1849 7.63652 9.16814C7.64497 9.15138 7.64778 9.13448 7.65328 9.1149L7.65342 9.11475C7.65666 9.09715 7.65863 9.07926 7.65905 9.06137C7.65877 8.98644 7.62849 8.91474 7.57496 8.86234C7.46355 8.75853 7.29086 8.75853 7.17943 8.86234C7.15337 8.88798 7.13238 8.9184 7.11774 8.95207C7.1045 8.987 7.09788 9.02404 7.09816 9.06137C7.09745 9.13518 7.12675 9.20617 7.17943 9.25772C7.23155 9.31181 7.30353 9.34209 7.3786 9.34195L7.37861 9.34196Z" fill="url(#paint2_linear_119_6520)"/>
<path d="M10.6486 9.342C10.6675 9.34144 10.6862 9.3396 10.7047 9.33636C10.7406 9.32848 10.7748 9.31425 10.8057 9.29425C10.8205 9.28298 10.8344 9.27072 10.8478 9.25777C10.9005 9.20621 10.9298 9.13522 10.9291 9.06141C10.9293 9.02409 10.9227 8.98704 10.9095 8.95211C10.8948 8.91845 10.8738 8.88802 10.8478 8.86239C10.8344 8.84943 10.8205 8.83717 10.8057 8.82591C10.7889 8.81745 10.7748 8.80914 10.7581 8.80069C10.7406 8.79464 10.7228 8.78999 10.7047 8.78661C10.6133 8.76773 10.5183 8.79619 10.4523 8.86239C10.4254 8.88732 10.4042 8.91789 10.3906 8.95211C10.3765 8.98691 10.3689 9.02395 10.3682 9.06142C10.3718 9.21481 10.4954 9.3382 10.6486 9.342H10.6486Z" fill="url(#paint3_linear_119_6520)"/>
<path d="M10.9095 12.2248C10.9017 12.2081 10.8924 12.192 10.8814 12.1772C10.8734 12.1609 10.8619 12.1465 10.8478 12.1351C10.8344 12.1221 10.8205 12.11 10.8057 12.0986C10.7889 12.0902 10.7748 12.0818 10.7581 12.0734C10.7413 12.0649 10.7216 12.0621 10.7048 12.0566H10.7047C10.6128 12.0402 10.5186 12.0694 10.4523 12.1351C10.438 12.1472 10.4258 12.1613 10.4159 12.1772C10.4075 12.1913 10.3992 12.2081 10.3907 12.2248C10.3822 12.2416 10.3794 12.2585 10.3739 12.2781L10.3738 12.2782C10.3706 12.2957 10.3686 12.3136 10.3682 12.3314C10.3684 12.4064 10.3987 12.4781 10.4523 12.5306C10.5039 12.5833 10.5748 12.6126 10.6486 12.6119C10.6675 12.6127 10.6864 12.6109 10.7047 12.6063C10.7228 12.6029 10.7406 12.5982 10.7581 12.5923C10.7748 12.5839 10.7889 12.5755 10.8057 12.5671V12.567C10.8205 12.5557 10.8344 12.5434 10.8478 12.5306C10.9005 12.4778 10.9299 12.4061 10.9291 12.3314C10.93 12.3134 10.9281 12.2955 10.9234 12.2782C10.9205 12.26 10.9158 12.2421 10.9095 12.2248V12.2248Z" fill="url(#paint4_linear_119_6520)"/>
<path d="M7.17897 12.1356C7.15291 12.1613 7.13192 12.1918 7.11727 12.2254C7.10375 12.2593 7.09713 12.2955 7.0977 12.332C7.09643 12.4066 7.12573 12.4786 7.17897 12.5311C7.23179 12.5838 7.30349 12.6131 7.37814 12.6124C7.45195 12.6131 7.5228 12.5838 7.57449 12.5311C7.62802 12.4786 7.6583 12.4069 7.65858 12.332C7.6583 12.2579 7.62788 12.187 7.57449 12.1356C7.4642 12.029 7.28926 12.029 7.17896 12.1356H7.17897Z" fill="url(#paint5_linear_119_6520)"/>
<defs>
<linearGradient id="paint0_linear_119_6520" x1="9.01379" y1="0.599976" x2="9.01379" y2="17.4274" gradientUnits="userSpaceOnUse">
<stop stop-color="#216EF2"/>
<stop offset="1" stop-color="#F221D1"/>
</linearGradient>
<linearGradient id="paint1_linear_119_6520" x1="9.01359" y1="6.48981" x2="9.01359" y2="14.9036" gradientUnits="userSpaceOnUse">
<stop stop-color="#216EF2"/>
<stop offset="1" stop-color="#F221D1"/>
</linearGradient>
<linearGradient id="paint2_linear_119_6520" x1="7.3786" y1="8.78448" x2="7.3786" y2="9.34196" gradientUnits="userSpaceOnUse">
<stop stop-color="#216EF2"/>
<stop offset="1" stop-color="#F221D1"/>
</linearGradient>
<linearGradient id="paint3_linear_119_6520" x1="10.6486" y1="8.78088" x2="10.6486" y2="9.342" gradientUnits="userSpaceOnUse">
<stop stop-color="#216EF2"/>
<stop offset="1" stop-color="#F221D1"/>
</linearGradient>
<linearGradient id="paint4_linear_119_6520" x1="10.6487" y1="12.0521" x2="10.6487" y2="12.6121" gradientUnits="userSpaceOnUse">
<stop stop-color="#216EF2"/>
<stop offset="1" stop-color="#F221D1"/>
</linearGradient>
<linearGradient id="paint5_linear_119_6520" x1="7.37812" y1="12.0557" x2="7.37812" y2="12.6124" gradientUnits="userSpaceOnUse">
<stop stop-color="#216EF2"/>
<stop offset="1" stop-color="#F221D1"/>
</linearGradient>
</defs>
</svg>
