<svg width="12" height="20" viewBox="0 0 12 20" fill="none" xmlns="http://www.w3.org/2000/svg">
<path fill-rule="evenodd" clip-rule="evenodd" d="M4.42718 17.5756H5.67391C5.78721 17.8249 5.90065 18.0743 6.01395 18.3009C6.12726 18.0742 6.2407 17.8249 6.37663 17.5756H9.21017L7.62339 19.0943H2.81791L4.42718 17.5756ZM6.01395 0.914429C8.89289 0.914429 11.2052 3.24922 11.2052 6.10563C11.2052 8.41779 6.89818 16.3289 6.01395 18.1879C5.15253 16.3291 0.822754 8.41786 0.822754 6.10563C0.822754 3.24946 3.15754 0.914429 6.01395 0.914429ZM6.01395 2.84125C7.82736 2.84125 9.27819 4.31475 9.27819 6.10549C9.27819 7.9189 7.8275 9.36973 6.01395 9.36973C4.22321 9.36973 2.74971 7.91903 2.74971 6.10549C2.74971 4.31475 4.22321 2.84125 6.01395 2.84125Z" fill="url(#paint0_linear_119_6496)"/>
<defs>
<linearGradient id="paint0_linear_119_6496" x1="6.01395" y1="0.914429" x2="6.01395" y2="19.0943" gradientUnits="userSpaceOnUse">
<stop stop-color="#216EF2"/>
<stop offset="1" stop-color="#F221D1"/>
</linearGradient>
</defs>
</svg>
