<svg width="18" height="11" viewBox="0 0 18 11" fill="none" xmlns="http://www.w3.org/2000/svg">
<path d="M10.1973 10.3143C9.54123 10.9619 8.47753 10.9619 7.82145 10.3143C7.16537 9.6668 7.16537 8.61691 7.82145 7.96937C8.04519 7.74854 8.31638 7.603 8.60261 7.53282L11.3853 6.7969L10.6397 9.54339C10.5685 9.8259 10.421 10.0935 10.1973 10.3143ZM9.0001 0C13.6393 0 17.4001 3.71186 17.4001 8.29067V9.53427H13.2001V8.29067C13.2001 6.00129 11.3197 4.14534 9.0001 4.14534C6.68048 4.14534 4.8001 6.00129 4.8001 8.29067V9.53427H0.600098V8.29067C0.600098 3.71186 4.3609 0 9.0001 0ZM16.1401 8.29067C16.1401 6.4962 15.4605 4.85837 14.3415 3.61423L13.1508 4.78944C13.9671 5.73126 14.4601 6.95413 14.4601 8.29067H16.1401ZM4.26078 3.01984L5.45143 4.195C6.30391 3.47483 7.3839 3.00939 8.57027 2.91819V1.25616C6.92047 1.35287 5.42145 2.00245 4.26078 3.01984ZM12.5576 4.2025L13.7481 3.02746C12.5816 2.00166 11.072 1.34794 9.41027 1.25504V2.91674C10.6085 3.00458 11.6991 3.47408 12.5576 4.2025ZM1.8601 8.29067H3.5401C3.5401 6.94999 4.03612 5.72367 4.85692 4.78073L3.66639 3.60565C2.54281 4.85083 1.8601 6.49209 1.8601 8.29067Z" fill="url(#paint0_linear_119_6506)"/>
<defs>
<linearGradient id="paint0_linear_119_6506" x1="9.0001" y1="0" x2="9.0001" y2="10.8" gradientUnits="userSpaceOnUse">
<stop stop-color="#216EF2"/>
<stop offset="1" stop-color="#F221D1"/>
</linearGradient>
</defs>
</svg>
