<svg width="18" height="16" viewBox="0 0 18 16" fill="none" xmlns="http://www.w3.org/2000/svg">
<path d="M9.85248 0.182983C9.47346 0.182983 9.16608 0.490619 9.16608 0.869898C9.16608 1.2493 9.47372 1.55681 9.85248 1.55681C13.4031 1.55681 16.292 4.44579 16.292 7.99704C16.292 11.548 13.403 14.4373 9.85248 14.4373C6.59401 14.4373 3.89466 12.0035 3.47226 8.85864L3.95305 9.33957C4.08724 9.47376 4.26296 9.54059 4.43881 9.54059C4.61466 9.54059 4.79037 9.47376 4.92457 9.33957C5.19283 9.07117 5.19283 8.6363 4.92457 8.36791L3.21148 6.65482C2.94322 6.38656 2.50821 6.38656 2.23996 6.65482L0.526877 8.36791C0.258619 8.63617 0.258619 9.07104 0.526877 9.33957C0.795135 9.60756 1.23015 9.60756 1.49853 9.33957L2.07683 8.76127C2.46213 12.7124 5.80232 15.8111 9.85248 15.8111C14.1608 15.8111 17.6662 12.3054 17.6662 7.99704C17.6662 3.6887 14.1608 0.182983 9.85248 0.182983Z" fill="url(#paint0_linear_119_6510)"/>
<path d="M7.26447 11.8004C7.07804 11.8004 6.89175 11.7295 6.7495 11.5873C6.46517 11.303 6.4649 10.8417 6.74936 10.5574L9.02576 8.28033L9.63966 3.67747C9.63966 3.57964 9.7981 3.19995 10.2 3.19995C10.2907 3.19995 10.4812 3.27515 10.4812 3.67747V8.58135C10.4812 8.77448 10.4047 8.95956 10.2682 9.09633L7.77942 11.5869C7.63732 11.729 7.45092 11.8004 7.26447 11.8004Z" fill="url(#paint1_linear_119_6510)"/>
<path d="M15.0409 8.44492H14.2871C14.0219 8.44492 13.8071 8.2301 13.8071 7.96492C13.8071 7.69974 14.0219 7.48492 14.2871 7.48492H15.0409C15.306 7.48492 15.5209 7.69974 15.5209 7.96492C15.5209 8.2301 15.3058 8.44492 15.0409 8.44492Z" fill="url(#paint2_linear_119_6510)"/>
<path d="M13.2501 12.2081C13.1271 12.2081 13.0045 12.1613 12.9106 12.0676L12.3775 11.5346C12.1899 11.347 12.1899 11.0432 12.3775 10.8558C12.5652 10.6685 12.8689 10.6682 13.0563 10.8558L13.5893 11.3889C13.777 11.5765 13.777 11.8803 13.5893 12.0676C13.4959 12.1614 13.373 12.2081 13.2501 12.2081H13.2501Z" fill="url(#paint3_linear_119_6510)"/>
<path d="M9.48733 13.7667C9.22215 13.7667 9.00732 13.5519 9.00732 13.2867V12.5329C9.00732 12.2677 9.22215 12.0529 9.48733 12.0529C9.75251 12.0529 9.96733 12.2677 9.96733 12.5329V13.2869C9.96733 13.5519 9.75251 13.7667 9.48733 13.7667Z" fill="url(#paint4_linear_119_6510)"/>
<path d="M12.717 5.21522C12.5941 5.21522 12.4714 5.16834 12.3775 5.07472C12.1899 4.88709 12.1899 4.58334 12.3775 4.39583L12.9103 3.86279C13.0975 3.67516 13.4017 3.67543 13.5891 3.86279C13.7767 4.05043 13.7767 4.35418 13.5891 4.54168L13.0563 5.07472C12.9628 5.16834 12.8399 5.21522 12.7171 5.21522H12.717Z" fill="url(#paint5_linear_119_6510)"/>
<defs>
<linearGradient id="paint0_linear_119_6510" x1="8.99594" y1="0.182983" x2="8.99594" y2="15.8111" gradientUnits="userSpaceOnUse">
<stop stop-color="#216EF2"/>
<stop offset="1" stop-color="#F221D1"/>
</linearGradient>
<linearGradient id="paint1_linear_119_6510" x1="8.50865" y1="3.19995" x2="8.50865" y2="11.8004" gradientUnits="userSpaceOnUse">
<stop stop-color="#216EF2"/>
<stop offset="1" stop-color="#F221D1"/>
</linearGradient>
<linearGradient id="paint2_linear_119_6510" x1="14.664" y1="7.48492" x2="14.664" y2="8.44492" gradientUnits="userSpaceOnUse">
<stop stop-color="#216EF2"/>
<stop offset="1" stop-color="#F221D1"/>
</linearGradient>
<linearGradient id="paint3_linear_119_6510" x1="12.9834" y1="10.7152" x2="12.9834" y2="12.2081" gradientUnits="userSpaceOnUse">
<stop stop-color="#216EF2"/>
<stop offset="1" stop-color="#F221D1"/>
</linearGradient>
<linearGradient id="paint4_linear_119_6510" x1="9.48733" y1="12.0529" x2="9.48733" y2="13.7667" gradientUnits="userSpaceOnUse">
<stop stop-color="#216EF2"/>
<stop offset="1" stop-color="#F221D1"/>
</linearGradient>
<linearGradient id="paint5_linear_119_6510" x1="12.9833" y1="3.72217" x2="12.9833" y2="5.21522" gradientUnits="userSpaceOnUse">
<stop stop-color="#216EF2"/>
<stop offset="1" stop-color="#F221D1"/>
</linearGradient>
</defs>
</svg>
