<svg width="24" height="24" viewBox="0 0 24 24" fill="none" xmlns="http://www.w3.org/2000/svg">
<path d="M8.82364 10.4205C10.5132 10.4205 11.8651 9.03807 11.8651 7.37912C11.8651 5.72017 10.5135 4.33771 8.82364 4.33771C7.13404 4.33771 5.78223 5.72017 5.78223 7.37912C5.78223 9.03807 7.13404 10.4205 8.82364 10.4205ZM8.82364 5.56649C9.83745 5.56649 10.6363 6.39597 10.6363 7.37912C10.6363 8.36227 9.80679 9.19175 8.82364 9.19175C7.84049 9.19175 7.01101 8.36227 7.01101 7.37912C7.01122 6.39597 7.80984 5.56649 8.82364 5.56649Z" fill="url(#paint0_linear_119_6530)"/>
<path d="M15.2753 10.4205C16.9649 10.4205 18.3167 9.03807 18.3167 7.37912C18.3167 5.72017 16.9651 4.33771 15.2753 4.33771C13.5857 4.33771 12.2339 5.72017 12.2339 7.37912C12.2339 9.03807 13.5857 10.4205 15.2753 10.4205ZM15.2753 5.56649C16.2891 5.56649 17.0879 6.39597 17.0879 7.37912C17.0879 8.36227 16.2585 9.19175 15.2753 9.19175C14.2922 9.19175 13.4627 8.36227 13.4627 7.37912C13.4629 6.39597 14.2615 5.56649 15.2753 5.56649Z" fill="url(#paint1_linear_119_6530)"/>
<path d="M15.9509 10.9126H14.6606C13.8312 10.9126 12.633 11.1276 11.8651 11.5577C11.1584 11.1276 10.3289 10.9126 9.49946 10.9126H8.20916C5.62856 10.9126 3.50879 13.0017 3.50879 15.613V17.8249H20.6202V15.613C20.6202 13.0324 18.5313 10.9126 15.9507 10.9126H15.9509ZM12.9402 16.5652H4.73757V15.582C4.73757 13.6772 6.27371 12.1104 8.20916 12.1104H9.49946C10.1446 12.1104 10.7591 12.2947 11.3121 12.6019C12.3565 13.247 12.971 14.353 12.971 15.5511L12.9708 16.5652H12.9402ZM19.3917 16.5652H14.169V15.582C14.169 14.3839 13.7081 13.2472 12.9402 12.4178C13.4625 12.2334 14.169 12.1413 14.6606 12.1413H15.9509C17.8557 12.1413 19.4225 13.6774 19.4225 15.6129L19.4223 16.5652H19.3917Z" fill="url(#paint2_linear_119_6530)"/>
<defs>
<linearGradient id="paint0_linear_119_6530" x1="8.82364" y1="4.33771" x2="8.82364" y2="10.4205" gradientUnits="userSpaceOnUse">
<stop stop-color="#216EF2"/>
<stop offset="1" stop-color="#F221D1"/>
</linearGradient>
<linearGradient id="paint1_linear_119_6530" x1="15.2753" y1="4.33771" x2="15.2753" y2="10.4205" gradientUnits="userSpaceOnUse">
<stop stop-color="#216EF2"/>
<stop offset="1" stop-color="#F221D1"/>
</linearGradient>
<linearGradient id="paint2_linear_119_6530" x1="12.0645" y1="10.9126" x2="12.0645" y2="17.8249" gradientUnits="userSpaceOnUse">
<stop stop-color="#216EF2"/>
<stop offset="1" stop-color="#F221D1"/>
</linearGradient>
</defs>
</svg>
